# xmcd
#
# Track frame offsets:
#	150
#	13342
#	30094
#	44864
#	54768
#	66326
#	78514
#	92731
#	120841
#	148500
#	163082
#	178957
#	190684
#	200825
#	212002
#
# Disc length: 3009 seconds
#
# Revision: 4
# Processed by: cddbd v1.5.2PL0 Copyright (c) Steve Scherf et al.
# Submitted via: EZCDAudioConverter 2.0.7.1
#
DISCID=d20bbf0f
DTITLE=Various Artist - Super 10 CD Chanson Française 10 Duos De Légendes
DYEAR=2013
DGENRE=Chanson Française
TTITLE0=Édith Piaf and Charles Dumont - Inconnu Excepté De Dieu
TTITLE1=Jacques Brel and Simone Langlois - Sur La Place
TTITLE2=Jean Sablon and Mireille - Puisque Vous Partez En Voyage
TTITLE3=Georges Brassens and Patachou - Maman Papa
TTITLE4=Bourvil and Georges Guetary - Copains Copains
TTITLE5=Jacqueline François and Henri Deker - Thé Pour Deux
TTITLE6=Fernandel and Marie Bizet - Redis-Le Moi
TTITLE7=Roger Pierre and Jean-Marc Thibault - A Joinville Le Pont
TTITLE8=Danielle Darrieux and Henri Garat - Je N'donnerais Pas Ma Place
TTITLE9=Arletty and Michel Simon - Comme De Bien Entendu
TTITLE10=Gloria Lasso and Luís Mariano - L'amour Commande
TTITLE11=Jean Gabin and Mistinguett - C'est Un Petit Rien
TTITLE12=Henri Salvador and Johnny Hess - Près De La Cascade
TTITLE13=Charles Trenet and Johnny Hess - Je Suis Swing
TTITLE14=Django Reinhardt, Ray Ventura and Andre Dassary - Sifflez En Travaillan
TTITLE14=t
EXTD=
EXTT0=
EXTT1=
EXTT2=
EXTT3=
EXTT4=
EXTT5=
EXTT6=
EXTT7=
EXTT8=
EXTT9=
EXTT10=
EXTT11=
EXTT12=
EXTT13=
EXTT14=
PLAYORDER=
